<?xml version="1.0" standalone="no"?>
<!DOCTYPE svg PUBLIC "-//W3C//DTD SVG 20010904//EN"
 "http://www.w3.org/TR/2001/REC-SVG-20010904/DTD/svg10.dtd">
<svg version="1.0" xmlns="http://www.w3.org/2000/svg"
 width="1266.000000pt" height="1266.000000pt" viewBox="0 0 1266.000000 1266.000000"
 preserveAspectRatio="xMidYMid meet">

<g transform="translate(0.000000,1266.000000) scale(0.100000,-0.100000)"
fill="#000000" stroke="none">
<path d="M5080 9221 c-191 -42 -346 -126 -466 -253 -78 -84 -134 -167 -166
-249 -13 -32 -26 -59 -29 -59 -14 0 -1339 -224 -1744 -295 -236 -42 -491 -86
-565 -99 l-135 -23 -63 38 c-81 48 -206 94 -319 115 -113 21 -301 14 -423 -16
-91 -22 -240 -89 -317 -141 -69 -47 -209 -185 -253 -249 -212 -311 -238 -713
-67 -1045 125 -240 365 -429 631 -496 l86 -22 82 -156 c88 -169 495 -927 523
-976 18 -30 18 -32 -13 -111 -50 -129 -65 -235 -59 -409 5 -169 29 -270 92
-399 19 -38 35 -71 35 -72 0 -2 -122 -4 -271 -6 l-271 -3 -24 -28 c-24 -28
-24 -32 -24 -217 l0 -189 -215 -3 c-285 -4 -259 23 -263 -278 l-3 -230 -285 0
-286 0 -29 -29 c-34 -35 -37 -68 -8 -105 l20 -26 6015 0 6015 0 24 25 c27 26
31 51 14 88 -19 41 -48 47 -244 47 l-185 0 0 1664 c0 1644 0 1664 -20 1689
-31 40 -62 41 -130 7 -33 -16 -61 -30 -64 -30 -10 0 -19 124 -81 1180 -13 234
-27 450 -30 480 -3 30 -14 217 -25 415 -11 198 -23 370 -25 382 -3 12 -15 32
-27 43 -21 20 -33 20 -590 20 l-569 0 -24 -24 c-16 -16 -25 -39 -29 -77 -5
-49 -29 -448 -72 -1209 -32 -565 -83 -1303 -91 -1310 -11 -10 -209 -116 -623
-334 l-335 -176 -5 304 c-5 281 -6 306 -24 325 -32 36 -74 27 -219 -45 -72
-37 -278 -138 -457 -224 -725 -351 -1196 -583 -1212 -598 -12 -10 -18 -11 -18
-3 0 7 18 128 40 269 74 483 78 514 65 547 -12 31 -74 84 -325 278 -301 232
-431 327 -455 333 -14 3 -42 -1 -64 -9 l-38 -16 -31 44 c-17 25 -56 64 -86 87
-53 41 -55 44 -41 65 8 12 15 30 15 40 0 19 -143 313 -217 447 l-43 79 29 76
c41 109 55 181 54 301 -1 392 -271 742 -649 841 -115 30 -285 34 -394 10z
m347 -166 c145 -36 294 -133 382 -249 54 -72 116 -202 136 -287 48 -207 -19
-463 -165 -622 -179 -195 -453 -277 -708 -211 -246 64 -453 272 -516 520 -21
80 -21 239 0 323 69 283 307 496 609 545 52 8 192 -2 262 -19z m5937 -77 c3
-29 6 -72 6 -95 l0 -43 -476 0 c-430 0 -476 2 -470 16 3 9 6 51 6 95 l0 79
464 0 463 0 7 -52z m16 -317 c0 -6 9 -148 20 -318 20 -308 100 -1697 100
-1733 0 -20 -49 -50 -380 -225 -102 -54 -232 -123 -290 -155 -58 -32 -149 -80
-202 -108 l-98 -50 0 307 c0 295 -1 308 -20 329 -35 37 -61 37 -140 -3 l-73
-37 7 134 c3 73 11 196 16 273 6 77 21 336 35 576 38 679 57 993 61 1007 3 9
108 12 484 12 293 0 480 -4 480 -9z m-7006 -244 c-13 -141 27 -319 100 -453
l35 -63 -557 -185 c-306 -101 -779 -259 -1050 -350 -271 -91 -499 -166 -506
-166 -12 0 -12 7 -3 38 7 21 11 102 11 187 0 130 -4 163 -27 249 -34 125 -90
241 -167 346 -34 45 -60 83 -58 85 3 3 382 71 783 142 257 45 1416 241 1433
242 10 1 11 -15 6 -72z m-2756 -193 c149 -37 286 -118 398 -237 88 -92 143
-183 186 -307 31 -92 32 -101 33 -255 0 -179 -13 -246 -70 -370 -96 -211 -316
-390 -550 -451 -105 -28 -314 -26 -418 4 -294 84 -519 316 -588 607 -30 128
-24 333 14 450 100 305 360 525 680 576 73 11 235 3 315 -17z m4410 -566 c45
-95 82 -178 82 -185 0 -8 -11 -10 -34 -6 -53 8 -169 -16 -243 -51 -78 -38
-148 -104 -200 -189 -19 -32 -39 -55 -43 -50 -16 17 -220 316 -220 322 0 3 41
16 90 28 49 12 123 38 164 57 92 44 223 141 272 202 20 24 40 44 43 44 4 0 44
-78 89 -172z m-1331 41 c119 -95 283 -168 415 -184 45 -6 58 -12 66 -30 6 -13
49 -76 95 -142 46 -65 116 -167 156 -226 40 -59 78 -110 85 -113 7 -3 24 0 38
5 25 9 26 8 32 -40 4 -27 9 -55 12 -62 3 -8 -6 -18 -20 -25 -14 -6 -28 -25
-34 -44 -6 -18 -32 -166 -58 -328 -26 -162 -49 -297 -51 -299 -1 -2 -11 4 -22
13 -10 9 -41 25 -67 35 -66 25 -80 59 -41 99 35 37 50 82 38 113 -5 13 -52 68
-104 122 -109 112 -118 115 -208 65 -32 -18 -61 -29 -64 -26 -4 3 10 68 30
144 55 206 57 185 -14 219 -38 18 -65 25 -70 19 -11 -11 -61 -168 -61 -190 0
-11 -23 -14 -130 -14 -177 0 -198 -11 -221 -118 -13 -63 -32 -69 -90 -31 -90
59 -104 54 -241 -79 -79 -77 -88 -89 -88 -122 0 -26 10 -50 31 -80 26 -36 30
-48 23 -69 -8 -21 -19 -27 -69 -37 -83 -17 -91 -31 -100 -159 -4 -58 -5 -122
-2 -142 8 -47 41 -81 86 -89 62 -10 69 -14 81 -44 11 -27 9 -34 -19 -76 -52
-79 -47 -93 74 -213 99 -98 107 -103 137 -97 18 4 50 18 72 32 32 22 44 25 70
17 27 -8 32 -14 38 -56 14 -98 49 -117 211 -117 146 0 173 18 195 125 6 30 14
42 34 49 22 8 33 4 69 -22 50 -37 79 -40 125 -12 l33 21 46 -50 47 -51 52 48
52 47 -38 48 c-45 57 -47 75 -12 108 31 29 27 64 -12 120 -39 56 -30 81 32 96
51 13 51 13 86 -20 19 -17 147 -117 284 -222 137 -104 294 -227 348 -272 70
-59 107 -83 126 -83 17 0 61 24 121 67 135 95 149 110 149 154 0 34 -9 46
-112 147 -62 60 -192 182 -288 271 -96 89 -176 167 -177 174 -2 7 16 113 40
237 l42 225 95 6 c110 7 184 31 265 84 50 33 117 106 128 138 2 6 63 -33 138
-89 74 -54 164 -122 201 -149 81 -60 77 -23 43 -420 -43 -487 -42 -455 -10
-487 33 -34 44 -34 211 -8 146 22 162 32 180 108 9 36 12 -196 13 -992 1 -955
0 -1038 -15 -1032 -9 4 -55 13 -102 21 -47 8 -86 16 -87 18 -1 1 -19 41 -39
88 l-37 87 61 83 c64 89 76 116 67 152 -4 12 -80 95 -170 185 -208 207 -181
203 -380 48 l-37 -28 -83 36 c-46 20 -89 36 -94 36 -6 0 -17 53 -26 117 -23
174 -6 165 -314 161 l-245 -3 -23 -27 c-18 -21 -25 -44 -30 -105 -13 -149 -8
-140 -113 -179 l-92 -35 -73 59 c-89 73 -106 82 -152 82 -34 0 -49 -12 -188
-147 -83 -82 -160 -158 -169 -170 -30 -36 -22 -68 48 -172 l66 -99 -25 -48
c-13 -27 -30 -65 -36 -85 -13 -40 -13 -40 -147 -55 l-61 -6 -6 53 c-11 93 -13
93 -257 97 l-210 3 0 189 c0 185 0 189 -24 217 l-24 28 -266 3 c-146 2 -266 4
-266 6 0 2 11 23 25 48 112 200 144 503 78 743 -61 225 -213 438 -407 572 -76
52 -43 6 -393 558 -210 333 -503 806 -503 814 0 13 183 76 1145 395 954 317
975 324 993 325 7 1 47 -26 89 -60z m1449 -416 c70 -24 165 -120 185 -188 44
-154 -20 -294 -165 -361 -139 -65 -323 2 -393 144 -39 80 -40 184 -1 258 32
62 104 127 161 148 57 20 153 20 213 -1z m520 -310 c77 -59 219 -168 318 -242
98 -74 180 -140 183 -147 2 -6 -7 -88 -22 -180 -46 -303 -96 -619 -98 -620 -1
-1 -22 -5 -46 -9 l-44 -7 6 43 c4 24 13 134 22 244 8 110 20 260 26 333 9 114
8 137 -4 156 -15 21 -142 123 -384 306 l-113 85 0 73 c0 39 4 72 9 72 5 0 71
-48 147 -107z m-4061 -468 c141 -225 296 -470 342 -543 47 -73 83 -136 80
-138 -3 -3 -31 -1 -63 5 -154 29 -397 2 -552 -60 -151 -60 -303 -170 -392
-282 -44 -56 -45 -56 -60 -36 -19 27 -310 564 -431 795 l-89 171 72 6 c322 24
614 219 781 518 l18 33 18 -30 c10 -16 134 -213 276 -439z m3159 136 l42 -29
-23 -114 c-25 -126 -83 -457 -83 -477 0 -19 88 -108 323 -324 120 -110 216
-204 215 -209 -2 -5 -15 -17 -30 -25 -25 -16 -27 -15 -144 78 -162 129 -333
263 -431 339 -46 35 -83 66 -83 70 0 4 22 133 49 286 28 154 55 311 60 349 6
39 13 85 17 103 l5 33 20 -25 c11 -15 40 -39 63 -55z m-1000 -38 c12 -65 16
-71 54 -83 20 -7 61 -25 89 -41 68 -37 99 -37 146 2 l38 32 30 -29 c44 -42 45
-59 9 -101 -36 -41 -36 -44 9 -152 40 -95 44 -99 97 -107 48 -7 59 -24 52 -80
-3 -26 -8 -30 -50 -36 -62 -8 -64 -10 -84 -70 -9 -29 -25 -66 -36 -83 -25 -42
-23 -65 13 -109 l32 -38 -40 -39 -39 -40 -39 31 c-46 37 -66 36 -165 -4 -114
-46 -114 -46 -124 -104 l-10 -52 -46 0 -47 0 -6 53 c-7 58 -20 72 -82 88 -22
6 -57 20 -77 30 -50 26 -75 24 -121 -8 l-38 -27 -34 35 -34 34 29 44 c36 52
36 60 9 113 -12 23 -28 63 -36 90 -12 41 -20 52 -48 64 -19 8 -42 14 -52 14
-35 0 -44 14 -35 56 5 27 14 40 27 42 85 14 92 20 118 85 14 34 32 79 41 99
16 36 15 37 -18 86 l-33 50 35 35 35 35 40 -29 c45 -33 74 -36 119 -13 17 9
56 25 87 35 65 23 71 30 71 87 l0 42 54 0 54 0 6 -37z m4255 -734 c49 -40 -1
-62 816 368 110 58 247 132 305 163 137 75 207 110 220 110 7 0 10 -102 10
-305 l0 -306 26 -26 c20 -20 32 -24 57 -20 28 5 459 229 1061 551 109 58 203
106 207 106 5 0 9 -711 9 -1580 l0 -1580 -225 0 -225 0 0 611 0 611 -29 29
-29 29 -545 0 c-300 0 -553 -3 -562 -6 -44 -17 -45 -29 -45 -669 l0 -605
-1345 0 -1345 0 0 1184 c0 972 2 1186 13 1195 8 6 369 184 803 395 l789 385 5
-310 5 -311 24 -19z m-6089 -200 c211 -33 425 -164 545 -333 106 -150 154
-289 162 -472 9 -189 -28 -329 -128 -495 l-41 -69 -682 0 -681 0 -47 83 c-88
154 -124 305 -115 476 7 131 27 209 82 328 52 111 85 160 162 239 181 188 479
286 743 243z m3193 -1243 c11 -67 22 -105 34 -117 10 -9 59 -31 108 -49 50
-18 121 -48 158 -67 l69 -34 41 25 c23 13 66 43 96 65 30 23 57 41 61 41 3 0
45 -40 94 -89 62 -62 86 -93 80 -102 -4 -8 -32 -46 -61 -85 -29 -39 -53 -78
-53 -88 0 -9 22 -60 49 -114 26 -53 56 -122 66 -152 9 -30 23 -61 29 -67 6 -7
61 -22 120 -33 60 -11 110 -21 111 -22 2 -2 6 -45 10 -95 l7 -93 -266 0 -266
0 0 43 c0 108 -65 278 -146 380 -147 187 -414 278 -654 221 -154 -36 -322
-159 -403 -295 -45 -77 -84 -194 -93 -283 l-7 -66 -258 0 -259 0 0 95 c0 52 1
95 3 95 1 0 54 9 117 19 127 22 130 24 156 105 9 28 38 97 66 153 31 65 47
110 43 122 -3 10 -31 54 -61 96 -30 42 -54 80 -52 85 2 4 45 47 96 95 66 62
96 84 105 78 6 -6 47 -38 90 -72 43 -33 83 -61 88 -61 6 0 56 20 112 44 56 24
126 51 154 61 88 28 94 37 107 156 l11 104 135 5 c74 3 138 3 141 0 4 -3 14
-50 22 -104z m4991 35 c3 -5 3 -257 -1 -560 l-6 -551 -434 0 -433 0 0 560 0
560 434 0 c245 0 437 -4 440 -9z m-7026 -463 l3 -138 -1306 0 -1305 0 0 135 0
134 58 4 c31 2 617 3 1302 3 l1245 -1 3 -137z m1952 -158 c170 -27 329 -164
380 -328 10 -31 21 -81 25 -109 l7 -53 -492 0 -491 0 7 48 c37 257 229 437
479 451 11 0 49 -4 85 -9z m-1480 -320 l0 -170 -1780 0 -1780 0 0 170 0 170
1780 0 1780 0 0 -170z"/>
<path d="M5173 8779 c-105 -20 -206 -86 -262 -170 -103 -154 -91 -379 27 -510
154 -172 427 -184 598 -27 89 82 129 189 122 327 -5 111 -43 195 -121 268 -65
62 -119 90 -206 109 -73 15 -96 16 -158 3z m188 -187 c89 -46 148 -155 135
-249 -13 -97 -86 -181 -181 -208 -67 -20 -120 -13 -188 23 -178 96 -162 366
27 448 55 24 147 18 207 -14z"/>
<path d="M1287 7879 c-20 -5 -61 -21 -90 -35 -233 -117 -325 -406 -207 -649
28 -58 107 -144 167 -185 131 -86 329 -93 478 -18 49 25 149 120 182 172 36
57 63 141 69 221 19 226 -139 444 -357 494 -53 13 -189 12 -242 0z m229 -166
c67 -23 164 -120 187 -187 21 -62 22 -147 2 -214 -21 -68 -97 -151 -167 -183
-75 -32 -184 -32 -253 1 -179 87 -239 318 -122 472 36 48 112 103 161 117 51
15 139 12 192 -6z"/>
<path d="M5012 7254 c-18 -35 -32 -66 -32 -69 0 -11 135 -65 138 -55 2 6 17
36 34 66 16 31 28 57 26 58 -2 0 -33 15 -69 33 l-66 31 -31 -64z"/>
<path d="M5435 5306 c-26 -30 -47 -57 -47 -61 1 -3 24 -27 52 -52 l51 -46 50
49 c27 26 49 53 48 59 -1 5 -25 32 -54 58 l-53 48 -47 -55z"/>
<path d="M5720 5143 c0 -5 -18 -32 -40 -61 l-40 -52 55 -35 c30 -20 61 -38 68
-41 9 -3 28 18 51 56 21 34 36 63 35 64 -21 16 -118 76 -123 76 -3 0 -6 -3 -6
-7z"/>
<path d="M5969 4923 c-16 -36 -28 -67 -27 -69 8 -7 122 -54 132 -54 10 0 56
104 56 129 0 6 -6 11 -12 11 -7 0 -37 11 -66 25 l-53 25 -30 -67z"/>
<path d="M7002 4865 c-30 -7 -56 -15 -58 -18 -5 -4 22 -126 29 -133 2 -3 37 1
76 7 67 11 72 14 66 33 -3 12 -11 45 -17 74 -13 58 -12 57 -96 37z"/>
<path d="M6280 4838 c-11 -18 -20 -49 -20 -69 0 -30 4 -38 23 -42 68 -17 220
-30 352 -31 l150 -1 3 39 c4 42 -14 96 -32 96 -90 2 -252 14 -330 25 -129 19
-123 20 -146 -17z"/>
<path d="M5993 7159 c-70 -20 -122 -108 -108 -183 15 -76 114 -146 187 -132
87 16 144 91 135 179 -5 60 -30 95 -87 125 -47 23 -75 26 -127 11z"/>
<path d="M4610 6401 c-88 -27 -176 -106 -215 -193 -23 -50 -28 -76 -28 -140 0
-68 5 -87 32 -142 37 -75 92 -128 170 -164 80 -37 192 -37 272 0 79 36 133 89
171 166 29 59 33 76 32 147 0 107 -27 167 -105 239 -73 68 -144 96 -237 95
-37 0 -78 -4 -92 -8z m203 -184 c87 -66 94 -202 15 -273 -76 -70 -172 -72
-241 -6 -42 40 -57 75 -57 133 0 59 32 125 74 153 62 40 152 37 209 -7z"/>
<path d="M7849 5381 l-29 -29 0 -201 c0 -193 1 -201 23 -225 l22 -25 938 -3
939 -3 24 28 c24 28 24 31 24 222 0 207 -5 235 -47 254 -17 8 -291 11 -944 11
l-921 0 -29 -29z m1779 -228 l3 -93 -826 0 -825 0 0 88 c0 49 3 92 7 95 3 4
374 6 822 5 l816 -3 3 -92z"/>
<path d="M7852 4630 c-31 -29 -36 -74 -29 -268 6 -162 8 -176 28 -198 l22 -24
934 0 934 0 24 25 c25 24 25 25 25 230 0 205 0 206 -25 230 l-24 25 -934 0
c-919 0 -934 0 -955 -20z m1778 -235 l0 -95 -825 0 -825 0 0 88 c0 49 3 92 7
95 3 4 375 7 825 7 l818 0 0 -95z"/>
<path d="M2661 5304 c-131 -35 -248 -133 -306 -255 -119 -251 -17 -541 231
-659 252 -121 562 11 662 280 45 124 38 251 -22 375 -61 127 -162 214 -294
255 -76 24 -192 25 -271 4z m231 -165 c83 -22 176 -121 204 -216 32 -110 3
-222 -81 -312 -63 -67 -128 -95 -225 -95 -130 0 -226 58 -282 172 -29 58 -33
76 -33 147 0 67 4 89 28 137 30 62 84 116 147 148 77 39 147 45 242 19z"/>
<path d="M6585 8223 c-22 -2 -54 -5 -71 -8 l-30 -5 10 -71 9 -71 45 6 c25 3
57 6 73 6 l28 0 -6 68 c-3 37 -8 69 -12 72 -3 3 -24 4 -46 3z"/>
<path d="M6820 8156 l0 -73 66 -7 c37 -4 69 -4 73 -1 4 5 20 136 17 141 -1 1
-36 4 -78 7 l-78 7 0 -74z"/>
<path d="M6228 8161 c-31 -9 -59 -19 -63 -23 -7 -6 23 -116 36 -131 8 -10 134
27 134 39 -3 40 -30 134 -39 133 -6 -1 -37 -9 -68 -18z"/>
<path d="M7159 8158 c-6 -12 -12 -43 -13 -70 l-1 -49 119 -40 c66 -21 189 -73
274 -114 l154 -75 28 30 c15 17 33 43 38 60 10 27 8 31 -21 49 -108 65 -322
160 -468 206 -97 30 -95 30 -110 3z"/>
<path d="M7875 7764 c-26 -30 -46 -56 -44 -58 2 -1 27 -23 55 -49 l51 -47 50
58 50 57 -57 47 -57 47 -48 -55z"/>
<path d="M8101 7539 c-51 -48 -53 -51 -34 -64 10 -7 32 -32 47 -54 l28 -40 59
46 58 46 -46 58 c-25 33 -49 59 -52 59 -3 -1 -30 -23 -60 -51z"/>
<path d="M8302 7280 l-62 -40 30 -49 c17 -27 49 -93 71 -147 23 -55 44 -102
48 -107 9 -9 101 21 120 39 17 16 4 54 -69 209 -70 147 -63 142 -138 95z"/>
<path d="M7637 7177 c-43 -18 -76 -35 -74 -38 2 -2 7 -28 10 -56 5 -42 3 -53
-8 -53 -8 0 -15 -6 -15 -14 0 -8 -9 -18 -20 -21 -17 -5 -20 -15 -20 -61 0 -49
2 -54 23 -54 17 -1 28 -13 45 -51 14 -28 35 -55 50 -63 15 -8 40 -28 56 -45
27 -29 35 -31 95 -31 73 0 162 35 213 83 23 21 29 23 36 11 7 -12 16 -11 60 7
59 24 58 20 16 115 -22 50 -25 53 -49 44 -22 -8 -25 -7 -25 11 0 11 -10 42
-21 69 -12 27 -19 57 -15 65 9 24 -32 72 -78 91 -23 9 -77 18 -121 20 -73 4
-86 2 -158 -29z m227 -125 c27 -25 46 -67 46 -102 0 -127 -177 -162 -226 -44
-29 69 -6 131 60 160 37 16 93 10 120 -14z"/>
<path d="M7301 7153 l-64 -4 7 -46 c3 -25 6 -56 6 -68 0 -21 3 -22 38 -14 20
5 53 9 72 9 l35 0 -3 65 c-3 42 -8 64 -15 63 -7 -1 -41 -3 -76 -5z"/>
<path d="M8495 6786 c-41 -8 -60 -16 -60 -26 2 -48 20 -122 30 -126 7 -3 39
-1 71 3 55 8 59 10 56 33 -5 51 -24 130 -30 129 -4 -1 -34 -7 -67 -13z"/>
<path d="M8122 6623 l-53 -4 6 -47 c13 -101 14 -102 48 -102 18 0 49 3 70 7
l39 6 -6 46 c-13 88 -17 101 -34 99 -9 -1 -41 -3 -70 -5z"/>
</g>
</svg>
