<?xml version="1.0" standalone="no"?>
<!DOCTYPE svg PUBLIC "-//W3C//DTD SVG 20010904//EN"
 "http://www.w3.org/TR/2001/REC-SVG-20010904/DTD/svg10.dtd">
<svg version="1.0" xmlns="http://www.w3.org/2000/svg"
 width="1276.000000pt" height="1276.000000pt" viewBox="0 0 1276.000000 1276.000000"
 preserveAspectRatio="xMidYMid meet">

<g transform="translate(0.000000,1276.000000) scale(0.100000,-0.100000)"
fill="#000000" stroke="none">
<path d="M6308 12224 c-36 -65 -98 -182 -138 -259 -74 -142 -355 -663 -460
-855 -32 -58 -126 -233 -210 -390 -84 -157 -186 -348 -228 -425 -41 -77 -104
-194 -140 -260 -35 -66 -90 -167 -120 -225 -30 -58 -57 -107 -58 -109 -2 -2
-36 23 -76 56 -40 33 -244 189 -453 348 -209 159 -413 315 -453 347 -40 32
-76 58 -80 58 -4 0 -24 -82 -44 -182 -49 -245 -198 -965 -239 -1155 -18 -84
-36 -153 -40 -153 -4 0 -117 82 -251 183 -828 623 -1000 750 -1773 1305 l-73
52 23 -82 c13 -46 78 -276 145 -513 67 -236 143 -506 170 -600 85 -300 448
-1569 552 -1930 55 -192 171 -597 258 -900 87 -302 197 -685 245 -850 48 -165
92 -317 97 -337 10 -37 12 -38 55 -38 25 0 43 -3 41 -7 -113 -227 -122 -262
-122 -443 0 -119 10 -205 39 -337 l5 -23 2481 0 c2352 0 2480 -1 2487 -17 4
-10 7 -110 6 -223 0 -172 -4 -221 -22 -304 -68 -308 -196 -541 -421 -767 -261
-260 -550 -400 -911 -440 -349 -39 -747 67 -1042 278 -99 70 -275 243 -345
337 -184 249 -303 574 -303 828 l0 68 -174 0 -175 0 5 -57 c18 -218 59 -420
119 -578 89 -238 242 -474 429 -660 271 -271 585 -439 973 -522 119 -26 144
-27 368 -27 223 0 249 1 366 27 550 117 1005 468 1273 979 149 284 214 573
203 905 l-6 173 461 0 461 0 156 -41 c205 -53 485 -131 490 -135 3 -3 -11
-193 -29 -424 -29 -354 -37 -420 -50 -420 -16 0 -685 -69 -708 -73 -7 -1 -34
-56 -61 -122 -53 -135 -183 -391 -254 -503 -26 -40 -47 -77 -47 -83 0 -6 67
-129 149 -273 81 -143 163 -289 182 -324 l34 -63 -36 -32 c-74 -64 -416 -373
-482 -434 -37 -35 -72 -63 -78 -63 -6 0 -84 53 -173 117 -88 65 -218 159 -289
210 l-127 93 -68 -38 c-195 -109 -549 -250 -694 -277 -21 -4 -38 -11 -38 -17
0 -28 -122 -724 -128 -730 -7 -7 -822 -24 -822 -17 -1 2 -40 163 -89 358 l-88
354 -109 25 c-144 32 -379 110 -517 173 -62 28 -124 56 -138 61 -24 10 -40 0
-240 -158 -118 -92 -247 -196 -288 -230 l-75 -62 -26 21 c-15 12 -144 121
-286 242 -143 121 -272 230 -287 242 l-29 22 161 314 c89 173 161 320 161 327
0 7 -31 55 -69 106 -101 136 -209 310 -282 454 l-64 125 -365 8 c-201 5 -366
10 -367 11 -7 6 -145 817 -141 821 2 1 115 46 252 101 l249 99 -379 5 c-301 4
-392 2 -442 -9 -49 -11 -62 -17 -58 -30 3 -9 41 -227 85 -486 44 -258 95 -553
113 -655 l33 -185 295 -6 c162 -3 345 -7 405 -8 l110 -1 34 -63 c52 -94 171
-290 187 -306 12 -13 5 -31 -48 -130 -34 -64 -117 -219 -184 -346 l-123 -230
27 -20 c15 -11 148 -121 296 -245 148 -124 364 -305 480 -402 116 -97 221
-182 233 -189 23 -13 -5 -33 450 319 l212 163 143 -55 c79 -30 180 -66 225
-81 72 -23 84 -30 89 -53 3 -15 21 -88 39 -162 19 -74 57 -234 85 -355 29
-121 56 -224 61 -229 10 -11 1360 21 1370 32 6 6 125 613 146 747 l8 50 120
45 c66 26 169 68 229 95 125 56 98 61 252 -50 54 -38 190 -134 303 -211 l206
-142 35 28 c54 45 344 304 586 525 121 110 256 233 300 273 l82 73 -145 257
c-235 416 -253 448 -253 458 0 5 17 41 38 79 20 38 64 128 98 199 l60 131 45
3 c24 1 188 18 364 37 177 19 335 35 352 35 18 0 34 4 37 9 9 14 116 1285 116
1379 0 12 -6 22 -14 22 -13 0 -228 60 -234 65 -2 1 19 31 45 66 66 87 87 159
81 277 -4 79 -9 99 -42 166 -90 184 -319 331 -647 416 -248 64 -50 60 -3259
60 l-2919 0 -20 68 c-118 402 -200 682 -250 857 -33 116 -107 374 -165 575
-92 321 -625 2189 -704 2470 -16 58 -28 106 -27 108 3 4 229 -161 580 -422
116 -86 282 -209 370 -273 471 -344 1366 -1023 1858 -1411 179 -141 179 -141
662 -338 154 -63 323 -133 375 -154 52 -22 113 -46 135 -55 l40 -15 -40 36
c-126 114 -661 550 -1035 844 -346 271 -424 332 -434 341 -4 4 15 52 44 106
73 135 251 465 323 598 33 61 111 205 173 322 151 283 252 469 279 518 12 22
48 90 80 150 165 314 553 1039 839 1568 26 48 51 87 55 87 4 0 88 -152 186
-337 98 -186 282 -531 408 -768 335 -627 471 -883 649 -1225 88 -168 189 -359
223 -425 70 -132 265 -509 265 -512 0 -4 -681 -509 -855 -633 -176 -127 -283
-205 -483 -352 -30 -22 -52 -42 -49 -44 5 -5 218 84 632 264 667 291 700 306
797 378 51 37 167 122 258 188 160 116 630 459 796 581 277 203 472 345 634
464 174 126 342 250 643 472 220 162 248 181 253 176 3 -2 0 -24 -5 -48 -6
-24 -45 -201 -86 -394 -42 -192 -102 -471 -135 -620 -33 -148 -102 -466 -155
-705 -52 -239 -124 -563 -160 -720 -36 -157 -106 -469 -156 -695 -50 -225
-115 -518 -145 -650 -30 -132 -57 -253 -60 -270 -5 -29 -2 -32 72 -70 43 -21
110 -63 148 -92 39 -29 71 -51 73 -49 2 1 21 81 42 177 22 96 65 284 96 419
102 448 556 2491 605 2720 17 80 57 264 90 410 131 590 300 1390 294 1390 -2
0 -79 -55 -171 -123 -92 -68 -208 -152 -258 -188 -280 -203 -597 -435 -790
-580 -121 -91 -278 -208 -350 -260 -71 -53 -217 -159 -323 -237 -106 -78 -195
-142 -197 -142 -7 0 -59 235 -155 700 -133 643 -144 690 -152 690 -6 0 -171
-123 -792 -594 -164 -124 -280 -206 -285 -200 -5 5 -47 81 -94 169 -46 88
-122 230 -167 315 -46 85 -144 272 -220 415 -223 423 -417 791 -495 935 -62
115 -361 684 -407 774 l-15 29 -65 -119z m-1623 -2748 c55 -44 102 -81 104
-82 2 -2 -29 -63 -69 -136 -150 -272 -180 -328 -300 -556 -67 -128 -126 -232
-129 -230 -19 8 -411 312 -411 318 0 11 220 1103 225 1117 4 12 316 -220 580
-431z m4010 179 c26 -126 71 -349 101 -494 42 -201 52 -266 43 -277 -6 -7 -77
-62 -158 -121 -232 -170 -293 -213 -301 -213 -5 0 -24 28 -43 63 -80 145 -397
755 -397 763 0 11 92 85 429 341 218 166 267 199 273 185 4 -9 28 -120 53
-247z m404 -4371 c326 -48 589 -161 641 -276 33 -73 -3 -121 -116 -155 -56
-17 -234 -18 -3206 -21 l-3148 -2 0 48 c0 113 57 240 140 314 48 43 126 87
175 99 17 4 1240 7 2719 8 2389 1 2700 -1 2795 -15z"/>
<path d="M6100 10243 c-101 -186 -247 -453 -325 -593 -78 -140 -193 -347 -255
-460 -189 -344 -220 -399 -317 -571 -51 -91 -93 -170 -93 -175 0 -5 13 -18 28
-29 15 -11 119 -96 232 -190 113 -94 210 -174 216 -178 7 -4 -25 87 -71 203
l-83 209 122 228 c67 125 183 338 258 473 435 785 608 1102 608 1116 0 11
-120 286 -129 297 -4 4 -90 -145 -191 -330z"/>
<path d="M10175 8840 c-88 -50 -163 -98 -167 -107 -12 -28 -268 -1055 -268
-1073 0 -11 37 -25 132 -52 73 -20 134 -35 137 -33 7 7 331 1347 327 1352 -1
1 -73 -38 -161 -87z"/>
<path d="M2614 8673 c3 -10 52 -200 110 -423 101 -393 364 -1404 371 -1426 2
-8 47 1 134 25 72 21 133 40 136 43 3 3 -12 70 -34 149 -63 225 -328 1219
-364 1365 l-32 131 -145 68 c-80 38 -153 73 -163 78 -16 7 -18 5 -13 -10z"/>
<path d="M9606 7099 c-2 -8 -37 -149 -78 -314 l-74 -301 113 -119 c62 -65 115
-116 117 -114 2 2 45 168 95 369 51 201 94 372 97 381 4 13 -20 25 -113 57
-65 22 -126 44 -135 47 -11 4 -19 2 -22 -6z"/>
<path d="M3375 6308 c-66 -17 -121 -32 -123 -33 -1 -1 19 -86 45 -189 l48
-186 1045 3 1045 2 3 78 3 77 -924 0 -924 0 -27 105 c-44 169 -46 175 -59 174
-7 0 -66 -15 -132 -31z"/>
</g>
</svg>
