<?xml version="1.0"?>
<svg width="2048" height="2048" xmlns="http://www.w3.org/2000/svg" xmlns:svg="http://www.w3.org/2000/svg" preserveAspectRatio="xMidYMid meet" version="1.0">
 <g class="layer">
  <title>Layer 1</title>
  <g fill="#000000" id="svg_1" transform="matrix(0.151949 0 0 -0.147091 -525.962 -438.214)">
   <path d="m8941.42,-3549.62c-53,-19 -111,-74 -137,-130c-62,-133 4,-304 133,-347l33,-11l0,-697l0,-697l525,-524l525,-524l-4,-130c-2,-72 -5,-235 -5,-362l-1,-231l-57,-9c-47,-7 -60,-14 -70,-34c-9,-18 -13,-100 -13,-302l0,-278l-84,0l-84,0l-4,283c-3,155 -8,290 -12,299c-11,24 -63,39 -122,36l-49,-3l-3,285l-2,285l-709,710l-710,710l-1,265c-1,146 -2,344 -1,441l1,176l40,18c47,21 106,82 126,131c18,44 18,152 -1,197c-47,114 -182,180 -302,148c-147,-40 -225,-215 -159,-357c26,-55 82,-108 133,-125l33,-11l0,-467l0,-467l716,-713l716,-714l-8,-253l-7,-254l-23,0c-36,0 -72,-20 -78,-44c-3,-11 -6,-146 -6,-299l0,-278l-82,3l-83,3l-5,292c-4,221 -8,295 -18,305c-9,9 -61,14 -185,16c-164,3 -174,2 -200,-18l-27,-21l0,-289l0,-288l-50,-11c-73,-16 -146,-56 -207,-114c-93,-88 -132,-203 -133,-389l0,-78l-288,0c-334,0 -319,5 -324,-95l-3,-60l-185,-3l-185,-2l-567,563l-566,564l-543,6c-298,4 -629,7 -735,7l-192,0l-7,31c-18,81 -135,159 -241,159c-238,0 -342,-296 -157,-450c39,-31 116,-60 163,-60c92,0 194,65 227,145l18,45l704,0l703,0l565,-562l564,-563l217,-5l217,-5l5,-57c3,-31 11,-63 18,-70c10,-10 82,-14 304,-15l291,-3l-1,-87l-1,-88l-287,-3c-318,-3 -316,-2 -328,-67c-4,-18 -14,-36 -22,-39c-9,-3 -95,-6 -192,-6l-177,0l-560,560l-560,560l-417,0l-417,0l-19,43c-60,135 -231,193 -360,122c-179,-98 -175,-352 7,-447c130,-68 308,-4 351,126l12,36l391,0l392,0l560,-560l560,-560l222,0l223,0l0,-74c0,-58 4,-79 19,-97l19,-24l291,-3l291,-3l0,-91l0,-91l-282,6c-182,4 -288,2 -300,-4c-10,-6 -23,-21 -28,-35l-10,-24l-1529,0l-1529,0l-12,36c-39,117 -194,184 -332,142c-100,-30 -175,-147 -165,-259c12,-140 115,-233 258,-232c106,0 186,53 235,157l18,36l1528,-2l1529,-3l2,-102c2,-83 5,-106 20,-120c16,-17 42,-18 307,-17l290,1l0,-89l0,-88l-290,0c-277,0 -291,-1 -310,-20c-12,-12 -20,-33 -20,-55l0,-35l-577,0l-578,-1l-319,-308l-319,-309l-56,-6c-31,-3 -395,-4 -810,-1l-753,5l-25,51c-46,91 -132,134 -254,127c-132,-7 -220,-96 -227,-230c-5,-85 14,-140 65,-193c99,-102 256,-108 358,-14c24,22 54,61 65,85l22,44l832,0l833,0l321,310l321,310l553,0l554,0l-4,-69c-4,-64 -2,-72 21,-95l26,-26l285,0l285,0l3,-85l3,-85l-60,0c-33,0 -166,-3 -295,-6c-269,-7 -270,-7 -270,-90l0,-44l-407,0l-408,0l-455,-445l-455,-445l-460,0l-460,0l-23,49c-68,149 -283,188 -406,73c-42,-39 -76,-118 -76,-176c0,-78 20,-126 75,-183c39,-40 62,-55 108,-68c131,-38 259,23 311,148l15,37l489,0l488,0l451,445l451,445l383,-2l383,-3l-3,-52c-3,-60 18,-108 51,-119c12,-4 146,-5 297,-3l274,4l-2,-70c-6,-231 95,-396 287,-465l62,-23l0,-284l0,-284l25,-24c22,-23 32,-25 115,-25l90,0l0,-136l0,-135l-277,-272c-153,-149 -392,-385 -532,-523l-254,-251l-5,-377l-5,-377l-36,-15c-105,-44 -166,-169 -141,-289c24,-116 124,-195 247,-195c105,0 184,46 228,133c64,129 1,298 -132,353l-33,14l0,349l0,348l530,522l530,523l0,164c0,157 1,164 20,164c11,0 29,9 40,20c19,19 20,33 20,305l0,285l85,0l85,0l0,-288c0,-267 1,-290 18,-305c16,-15 45,-17 195,-17c164,0 179,2 197,20c19,19 20,33 20,306c0,224 3,285 13,282c9,-4 13,-131 15,-580l2,-576l-465,-460l-465,-460l0,-185l0,-185l-35,-12c-19,-6 -55,-31 -79,-56c-129,-129 -85,-351 83,-421c48,-20 137,-20 186,1c49,21 110,78 136,128c49,96 29,212 -51,289c-26,26 -63,52 -81,58l-34,11l2,162l3,163l460,455l461,455l-1,303l0,302l90,0l90,0l0,-419l0,-418l-285,-278l-285,-277l0,-644l0,-644l-37,-15c-99,-42 -153,-124 -153,-235c0,-53 6,-78 28,-121c87,-172 330,-182 439,-17c22,33 28,55 31,114c3,41 -1,89 -8,109c-17,51 -74,111 -132,141l-48,24l0,611l0,611l286,282l286,281l-1,448c-2,376 0,447 12,447c8,0 21,8 30,18c15,16 17,53 17,305l0,287l65,0l65,0l0,-279c0,-348 -7,-331 141,-331l99,0l0,-614l0,-614l68,-63c37,-34 163,-155 279,-268c200,-194 213,-208 213,-242c0,-31 -4,-38 -31,-49c-50,-21 -115,-94 -134,-151c-45,-135 32,-284 169,-324c63,-19 80,-19 147,1c144,43 219,218 150,353c-33,64 -80,104 -153,131c-26,9 -28,13 -28,69l0,59l-217,214c-120,118 -246,241 -280,273l-63,58l0,584c0,512 2,583 15,583c8,0 24,9 35,20c19,19 20,33 20,305l0,285l30,0l30,0l0,-264c0,-158 4,-275 10,-293c14,-39 46,-53 119,-53c44,0 60,-4 65,-16c3,-9 6,-267 6,-574l0,-558l350,-343l350,-343l0,-777l0,-777l-45,-22c-124,-60 -179,-224 -116,-348c28,-54 95,-109 155,-127c62,-19 90,-19 152,0c105,31 174,126 174,240c-1,103 -50,184 -141,230l-46,24l-7,300c-4,165 -4,305 -1,312c4,6 4,234 0,507l-8,497l-348,344l-349,343l0,544l0,544l29,0c15,0 40,9 55,21l26,20l0,285l0,284l85,0l85,0l0,-280l0,-281l25,-24c21,-22 33,-25 95,-25l70,0l0,-482l1,-483l449,-452l450,-453l0,-375l0,-376l-37,-15c-100,-42 -153,-123 -153,-233c0,-158 124,-274 275,-258c106,11 204,93 224,188c14,65 14,76 -5,138c-19,66 -79,133 -140,158l-44,18l0,406l0,406l-450,451l-450,451l0,454l0,454l42,6c78,10 78,11 78,327l0,277l43,6c172,25 301,131 358,295c14,40 21,87 22,159l2,103l285,0c341,0 330,-3 330,96l0,64l295,0l296,0l667,-665l667,-665l535,0l535,0l29,-56c46,-88 120,-133 222,-134c134,-1 240,89 259,222c15,98 -46,213 -138,259c-127,65 -304,2 -353,-127l-17,-44l-511,0l-512,0l-669,670l-670,670l-318,0l-317,0l2,49c2,37 -3,55 -16,70c-18,20 -31,21 -310,23l-291,3l-3,88l-3,87l295,0c293,0 295,0 310,22c10,14 16,44 16,80l0,58l548,0l547,-1l465,-459l465,-459l405,-1l406,0l12,-32c42,-118 184,-184 314,-148c100,28 178,135 178,244c0,235 -278,341 -445,169c-19,-20 -40,-54 -47,-75l-11,-38l-381,0l-381,1l-467,464l-467,465l-571,0l-570,0l0,54c0,88 6,86 -333,86l-288,0l3,88l3,87l180,0c99,0 518,-2 931,-3l751,-3l409,-409l408,-410l108,0l108,0l16,-40c31,-77 145,-150 234,-150c60,0 131,31 180,78c118,114 95,303 -48,389c-141,84 -313,30 -375,-118l-14,-35l-81,3l-81,2l-402,406l-402,405l-653,0l-654,0l0,138c0,121 -2,141 -18,155c-16,15 -56,17 -306,19l-288,3l-4,88l-3,87l285,0l285,0l24,25c20,19 25,34 25,75l0,50l418,0l418,0l239,225l240,224l992,4l992,3l16,-42c19,-50 70,-99 133,-126c68,-30 173,-23 238,17c71,44 107,108 112,197c3,48 -1,82 -12,112c-51,133 -230,197 -364,130c-56,-28 -92,-67 -117,-127l-15,-37l-1008,0l-1007,0l-100,-91c-55,-51 -165,-153 -244,-228l-145,-136l-393,-1l-393,-1l0,63c0,97 10,94 -332,94l-288,0l0,90l0,89l296,3c339,3 324,-1 324,95l0,53l262,0l261,0l71,67c116,110 286,274 545,527l244,238l86,-6c47,-3 319,-5 604,-6l518,0l15,-35c21,-50 82,-115 129,-136c55,-25 147,-24 205,2c99,45 154,126 153,229c0,108 -45,179 -147,233c-57,30 -165,30 -222,0c-48,-25 -101,-82 -120,-130l-14,-33l-632,0l-631,0l-106,-103c-58,-57 -249,-242 -424,-410l-319,-307l-239,0l-239,0l0,53c0,89 10,86 -326,89l-289,3l-6,130c-7,143 -12,166 -60,255c-57,106 -164,181 -293,203l-65,11l-3,289c-3,335 2,317 -105,317l-63,0l0,186l0,186l143,136c78,75 267,260 420,411l277,276l0,492l0,493l33,14c49,20 103,71 126,120c30,61 29,164 -3,232c-74,160 -298,191 -416,58c-46,-53 -60,-93 -60,-171c0,-107 56,-195 150,-238l40,-18l0,-466l0,-467l-212,-210c-117,-116 -304,-298 -416,-406c-112,-108 -205,-204 -207,-214c-2,-11 -4,-105 -4,-210l-1,-191l-47,-6c-84,-9 -84,-8 -83,-321c0,-149 0,-277 0,-283c0,-9 -24,-13 -85,-13l-84,0l-3,290c-2,220 -6,292 -16,302c-7,7 -43,15 -80,18l-67,5l-2,190l-2,190l420,409l419,409l0,118l0,117l37,13c20,6 58,33 84,59c86,86 100,201 38,309c-53,92 -138,137 -243,129c-71,-6 -112,-24 -159,-72c-125,-125 -93,-329 66,-410l57,-29l0,-87l0,-87l-417,-409l-418,-408l-5,-221l-5,-220l-52,-3c-32,-2 -56,-9 -65,-19c-10,-12 -14,-83 -16,-305l-3,-289l-84,3l-83,3l-6,290c-7,314 -7,315 -63,315l-23,0l0,369l0,369l210,204l210,204l0,845l0,845l33,12c17,6 49,28 70,49c76,73 101,160 74,254c-65,223 -377,252 -473,44c-62,-131 2,-300 130,-346l36,-13l2,-819l3,-819l-212,-205l-213,-205l0,-394l0,-393l-130,1l-130,1l0,396l0,396l-520,520l-520,520l0,672l0,672l23,7c50,15 108,66 134,117c69,136 9,304 -132,363c-41,17 -137,17 -184,0zm157,-136c18,-11 40,-37 48,-57c40,-95 -47,-200 -145,-173c-99,26 -126,146 -51,222c35,35 98,38 148,8zm-997,-319c35,-34 39,-44 39,-88c0,-55 -17,-86 -60,-108c-84,-43 -180,15 -180,110c0,75 49,124 124,125c32,0 45,-7 77,-39zm2838,-19c79,-42 92,-140 27,-199c-29,-27 -44,-33 -79,-33c-59,0 -108,33 -126,86c-13,38 -13,44 7,85c36,75 102,98 171,61zm1542,-648c45,-23 73,-91 59,-143c-22,-82 -113,-117 -187,-71c-40,24 -56,54 -56,105c0,96 98,154 184,109zm-584,-749c36,-24 56,-62 56,-106c0,-50 -26,-87 -77,-113c-32,-16 -44,-17 -75,-8c-58,18 -96,64 -96,117c0,101 109,164 192,110zm-2921,-1931c-3,-9 -6,-116 -6,-239l0,-224l-84,-3l-85,-3l-5,45c-2,25 -5,134 -5,243l0,197l95,0c84,0 95,-2 90,-16zm594,-229l0,-245l-85,0l-85,0l0,245l0,245l85,0l85,0l0,-245zm600,0l0,-246l-82,3l-83,3l-3,243l-2,242l85,0l85,0l0,-245zm320,5l0,-240l-22,0c-13,0 -53,-3 -90,-7l-68,-6l0,247l0,246l90,0l90,0l0,-240zm598,-1l-3,-241l-82,-5l-83,-5l0,246l0,246l85,0l85,0l-2,-241zm602,1l0,-240l-62,0c-35,0 -73,-3 -85,-6l-23,-6l0,246l0,246l85,0l85,0l0,-240zm-7180,184c79,-47 80,-178 0,-219c-64,-33 -149,-5 -176,60c-18,44 -18,59 3,102c31,66 112,92 173,57zm11238,-308c86,-44 102,-151 32,-210c-43,-36 -81,-41 -133,-18c-70,31 -95,104 -59,170c34,63 102,88 160,58zm-10631,-263c66,-31 92,-112 56,-174c-10,-16 -37,-39 -60,-50c-36,-17 -48,-19 -76,-10c-113,38 -128,191 -24,236c42,19 62,18 104,-2zm6814,-9c60,-28 121,-89 156,-156l28,-53l0,-1650l0,-1650l-21,-46c-33,-70 -86,-123 -155,-154l-62,-27l-1611,1c-1837,2 -1670,-7 -1768,91c-96,97 -89,-67 -86,1805l3,1640l24,45c45,87 121,148 208,169c22,5 725,8 1638,8l1600,-2l46,-21zm-3651,-654l0,-90l-245,0l-245,0l0,90l0,90l245,0l245,0l0,-90zm4460,-5l0,-85l-249,0l-248,0l1,85l1,85l248,0l247,0l0,-85zm3722,-47c62,-23 89,-128 47,-182c-11,-14 -34,-33 -49,-41c-83,-43 -180,22 -180,119c0,44 48,102 94,114c32,9 40,8 88,-10zm-8182,-558l0,-90l-245,0l-245,0l0,90l0,90l245,0l245,0l0,-90zm4455,-2l0,-88l-247,0l-248,0l5,88c2,48 4,87 5,87c0,0 109,0 243,0l242,0l0,-87zm-8315,-416c14,-10 33,-35 44,-56c16,-33 17,-43 7,-78c-33,-108 -167,-130 -228,-39c-29,43 -29,89 0,132c44,66 118,83 177,41zm3860,-192l0,-90l-245,0l-245,0l0,90l0,90l245,0l245,0l0,-90zm4460,0l0,-90l-245,0l-245,0l0,59c0,32 -3,73 -6,90l-6,31l251,0l251,0l0,-90zm-4460,-600l0,-90l-245,0l-245,0l0,90l0,90l245,0l245,0l0,-90zm4460,0l0,-90l-249,0l-249,0l3,88c2,48 4,88 4,90c1,1 111,2 246,2l245,0l0,-90zm2731,-289c33,-32 39,-45 39,-80c0,-56 -22,-95 -64,-115c-45,-21 -82,-20 -121,4c-32,20 -65,72 -65,104c0,65 65,126 134,126c31,0 45,-7 77,-39zm-11431,-187c147,-59 71,-276 -82,-233c-108,29 -119,182 -17,232c42,21 49,21 99,1zm4240,-134l0,-90l-245,0l-245,0l0,90l0,90l245,0l245,0l0,-90zm4460,0l0,-90l-247,0l-248,0l3,85l3,85l217,3c119,1 229,3 245,5l27,2l0,-90zm3268,-200c70,-43 78,-136 17,-197c-27,-27 -41,-33 -75,-33c-132,0 -179,162 -67,230c41,25 83,25 125,0zm-11180,-570c67,-41 78,-130 23,-189c-53,-56 -129,-54 -181,6c-29,33 -32,41 -28,85c10,98 104,148 186,98zm4102,-249l0,-239l-82,-4c-46,-2 -85,-3 -88,-2c-3,1 -4,111 -2,243l3,241l84,0l85,0l0,-239zm607,87c-4,-83 -7,-193 -7,-245l0,-93l-85,0l-85,0l0,245l0,245l92,0l91,0l-6,-152zm511,-90l-3,-243l-87,-3l-88,-3l0,246l0,245l90,0l90,0l-2,-242zm559,0l2,-238l-22,0c-12,0 -52,-3 -89,-7l-68,-6l0,247l0,247l88,-3l87,-3l2,-237zm483,2l0,-240l-62,0c-35,0 -73,-3 -85,-6l-23,-6l0,246l0,246l85,0l85,0l0,-240zm610,0l0,-240l-90,0l-90,0l0,240l0,240l90,0l90,0l0,-240zm4471,-195c36,-19 69,-70 69,-108c0,-39 -24,-81 -61,-107c-46,-33 -122,-24 -160,18c-96,107 25,262 152,197zm-7292,-2153c38,-20 71,-73 71,-112c0,-40 -34,-92 -74,-113c-49,-26 -99,-16 -143,28c-27,27 -33,41 -33,74c0,54 22,97 63,121c40,25 73,25 116,2zm2372,-18c42,-40 55,-90 36,-137c-36,-84 -141,-102 -204,-33c-103,112 59,275 168,170zm-3346,-208c80,-34 100,-151 37,-207c-43,-39 -92,-46 -138,-22c-40,21 -74,73 -74,113c0,39 33,92 71,112c41,22 59,22 104,4zm4710,-570c13,-8 31,-35 40,-60c21,-56 9,-103 -38,-142c-27,-23 -38,-26 -84,-22c-87,7 -138,78 -114,157c26,89 116,119 196,67zm-3075,-52c82,-49 79,-178 -6,-219c-67,-32 -143,-4 -170,62c-21,50 -10,99 31,140c27,27 41,33 75,33c23,0 54,-7 70,-16zm2280,-710c105,-63 63,-232 -58,-234c-68,0 -132,60 -132,123c0,42 28,95 59,112c35,19 97,19 131,-1z" id="svg_2"/>
   <path d="m8950.42,-8294.62c-73,-23 -131,-74 -171,-151l-24,-45l-3,-1319c-3,-1483 -8,-1374 73,-1464c27,-30 66,-59 97,-73l53,-24l1295,0l1295,0l46,21c56,26 111,82 141,143l23,46l0,1325l0,1325l-21,46c-28,60 -76,114 -133,147l-46,27l-1300,2c-715,1 -1311,-2 -1325,-6zm2620,-143c18,-13 43,-36 54,-51l21,-28l3,-1308l2,-1308l-23,-34c-12,-18 -38,-44 -56,-56l-34,-23l-1270,0c-1262,0 -1269,0 -1306,21c-20,11 -48,36 -61,56l-25,37l-3,1290l-2,1291l22,45c13,25 38,55 57,67l34,23l1277,0l1277,0l33,-22z" id="svg_3"/>
  </g>
 </g>
</svg>